# AST/ASF file generated using VICON BodyLanguage
# -----------------------------------------------
:version 1.10
:name VICON
:units
  mass 1.0
  length 0.45
  angle deg
:documentation
   .ast/.asf automatically generated from VICON data using
   VICON BodyBuilder and BodyLanguage model FoxedUp or BRILLIANT.MOD
:root
   order TX TY TZ RX RY RZ
   axis XYZ
   position 0 0 0  
   orientation 0 0 0 
:bonedata
  begin
     id 1 
     name lhipjoint
     direction 0.707368 -0.647095 0.284426 
     length 2.60678 
     axis 0 0 0  XYZ
  end
  begin
     id 2 
     name lfemur
     direction 0.34202 -0.939693 0  
     length 6.63812  
     axis 0 0 20  XYZ
    dof rx ry rz
    limits (-160.0 20.0)
           (-70.0 70.0)
           (-60.0 70.0)
  end
  begin
     id 3 
     name ltibia
     direction 0.34202 -0.939693 0   
     length 7.51178   
     axis 0 0 20   XYZ
    dof rx
    limits (-10.0 170.0)
  end
  begin
     id 4 
     name lfoot
     direction 0.121251 -0.333133 0.935051   
     length 1.83716   
     axis -90 7.62852e-016 20   XYZ
    dof rx rz
    limits (-45.0 90.0)
           (-70.0 20.0)
  end
  begin
     id 5 
     name ltoes
     direction 1.53611e-011 -4.21962e-011 1   
     length 0.916133   
     axis -90 7.62852e-016 20   XYZ
    dof rx
    limits (-90.0 20.0)
  end
  begin
     id 6 
     name rhipjoint
     direction -0.692419 -0.660507 0.290321   
     length 2.55385  
     axis 0 0 0  XYZ 
  end
  begin
     id 7 
     name rfemur
     direction -0.34202 -0.939693 0   
     length 7.29079   
     axis 0 0 -20   XYZ
    dof rx ry rz
    limits (-160.0 20.0)
           (-70.0 70.0)
           (-70.0 60.0)
  end
  begin
     id 8 
     name rtibia
     direction -0.34202 -0.939693 0   
     length 7.47143   
     axis 0 0 -20   XYZ
    dof rx
    limits (-10.0 170.0)
 end
 begin
     id 9 
     name rfoot
     direction -0.119907 -0.329441 0.936532   
     length 1.79439  
     axis -90 -7.62852e-016 -20   XYZ
    dof rx rz
    limits (-45.0 90.0)
           (-20.0 70.0)
  end
  begin
     id 10 
     name rtoes
     direction -1.53571e-011 -4.21961e-011 1   
     length 0.896039   
     axis -90 -7.62852e-016 -20   XYZ
    dof rx
    limits (-90.0 20.0)
  end
  begin
     id 11 
     name lowerback
     direction 0.0367721 0.992912 -0.113016   
     length 1.73542   
     axis 0 0 0   XYZ
    dof rx ry rz
    limits (-20.0 45.0)
           (-30.0 30.0)
           (-30.0 30.0)
  end
  begin
     id 12 
     name upperback
     direction -0.000314626 0.990678 0.136227   
     length 1.7514   
     axis 0 0 0   XYZ
    dof rx ry rz
    limits (-20.0 45.0)
           (-30.0 30.0)
           (-30.0 30.0)
  end
  begin
     id 13 
     name thorax
     direction -0.0226159 0.981151 0.191917   
     length 1.71471   
     axis 0 0 0   XYZ
    dof rx ry rz
    limits (-20.0 45.0)
           (-30.0 30.0)
           (-30.0 30.0)
  end
  begin
     id 14 
     name lowerneck
     direction 0.0219333 0.998071 0.0580739   
     length 1.65882   
     axis 0 0 0   XYZ
    dof rx ry rz
    limits (-20.0 45.0)
           (-30.0 30.0)
           (-30.0 30.0)
  end
  begin
     id 15 
     name upperneck
     direction 0.0384529 0.980058 -0.194957   
     length 1.6612   
     axis 0 0 0   XYZ
    dof rx ry rz
    limits (-20.0 45.0)
           (-30.0 30.0)
           (-30.0 30.0)
  end
  begin
     id 16
     name head
     direction 0.00592123 0.997421 -0.0715234  
     length 1.68077  
     axis 0 0 0   XYZ
    dof rx ry rz
    limits (-20.0 45.0)
           (-30.0 30.0)
           (-30.0 30.0)
  end
  begin
     id 17 
     name lclavicle
     direction 0.904803 0.417826 0.0821728  
     length 3.42227  
     axis 0 0 0   XYZ
    dof ry rz
    limits (-20.0 10.0)
           (0.0 20.0)
  end
  begin
     id 18 
     name lhumerus
     direction 1 -4.48965e-011 -2.68786e-027   
     length 5.11878   
     axis -180 -30 -90   XYZ
    dof rx ry rz
    limits (-60.0 90.0)
           (-90.0 90.0)
           (-90.0 90.0)
  end
  begin
     id 19
     name lradius
     direction 1 -4.48965e-011 2.61168e-028   
     length 3.59971   
     axis -180 -30 -90   XYZ
    dof rx
    limits (-10.0 170.0)
  end
  begin
     id 20
     name lwrist
     direction 1 -4.48965e-011 1.58672e-027   
     length 1.79985   
     axis -1.65735e-015 90 90   XYZ
    dof ry
    limits (-180.0 0.0)
 end
  begin
     id 21 
     name lhand
     direction 1 -4.48942e-011 3.17344e-027   
     length 0.62877   
     axis -2.02492e-015 90 90   XYZ
    dof rx rz
    limits (-90.0 90.0)
           (-45.0 45.0)
  end
  begin
     id 22 
     name lfingers
     direction 1 -4.49011e-011 6.34687e-027   
     length 0.506931   
     axis -4.04985e-015 90 90   XYZ
    dof rx
    limits (0.0 90.0)
  end
  begin
     id 23
     name lthumb
     direction 0.707107 -6.34982e-011 0.707107   
     length 0.727854   
     axis -90 45 2.85299e-015   XYZ
    dof rx rz
    limits (-45.0 45.0)
           (-45.0 45.0)
  end
  begin
     id 24 
     name rclavicle
     direction -0.945647 0.32488 0.0143075   
     length 3.52737  
     axis 0 0 0   XYZ 
    dof ry rz
    limits (-10.0 20.0)
           (-20.0 0.0)
  end
  begin
     id 25 
     name rhumerus
     direction -1 -4.48962e-011 1.92182e-027  
     length 5.4902   
     axis -180 30 90   XYZ
    dof rx ry rz
    limits (-90.0 60.0)
           (-90.0 90.0)
           (-90.0 90.0)
  end
  begin
     id 26 
     name rradius
     direction -1 -4.48967e-011 -5.97193e-028   
     length 3.20659   
     axis -180 30 90   XYZ
    dof rx
    limits (-10.0 170.0)
  end
  begin
     id 27 
     name rwrist
     direction -1 -4.48964e-011 1.58672e-027   
     length 1.6033   
     axis -1.65735e-015 -90 -90   XYZ
    dof ry
    limits (-180.0 0.0)
  end
  begin
     id 28
     name rhand
     direction -1 -4.49006e-011 3.17344e-027   
     length 0.691885   
     axis -2.02492e-015 -90 -90   XYZ
    dof rx rz
    limits (-90.0 90.0)
           (-45.0 45.0)
  end
  begin
     id 29
     name rfingers
     direction -1 -4.48908e-011 6.34687e-027   
     length 0.557815   
     axis -4.04985e-015 -90 -90   XYZ
    dof rx
    limits (0.0 90.0)
  end
  begin
     id 30
     name rthumb
     direction -0.707107 -6.34999e-011 0.707107   
     length 0.800915   
     axis -90 -45 -2.85299e-015   XYZ
    dof rx rz
    limits (-45.0 45.0)
           (-45.0 45.0)
  end
:hierarchy
  begin
    root lhipjoint rhipjoint lowerback
    lhipjoint lfemur
    lfemur ltibia
    ltibia lfoot
    lfoot ltoes
    rhipjoint rfemur
    rfemur rtibia
    rtibia rfoot
    rfoot rtoes
    lowerback upperback
    upperback thorax
    thorax lowerneck lclavicle rclavicle
    lowerneck upperneck
    upperneck head
    lclavicle lhumerus
    lhumerus lradius
    lradius lwrist
    lwrist lhand lthumb
    lhand lfingers
    rclavicle rhumerus
    rhumerus rradius
    rradius rwrist
    rwrist rhand rthumb
    rhand rfingers
  end

#!OML:ASF I:\Actors\actors\Patient Classification 1\Patient 1\Session 1\Subject1.ASF
:FULLY-SPECIFIED
:DEGREES
1
root 0.0284142 17.4831 8.63675 11.3238 3.09601 -8.89184
lowerback -3.06229 0.0913041 5.01843
upperback -10.979 0.483329 2.69136
thorax -9.93895 -0.0525666 0.0494932
lowerneck 0.425254 -13.5666 -14.5222
upperneck 19.5833 -20.8337 13.4293
head 9.01342 -10.1466 4.81079
rclavicle -4.37326e-015 -1.27222e-014
rhumerus -45.0302 -22.1688 -70.5443
rradius 18.668
rwrist 41.4392
rhand 10.9109 -34.4891
rfingers 7.12502
rthumb 35.9898 -60.8081
lclavicle -4.37326e-015 -1.27222e-014
lhumerus -50.08 35.0423 59.6295
lradius 11.7321
lwrist -57.2662
lhand -17.5151 -14.8256
lfingers 7.12502
lthumb 8.73828 14.9735
rfemur -4.36782 25.0916 25.3518
rtibia 1.82649
rfoot -13.5681 -29.4308
rtoes 1.55466
lfemur 1.01644 -47.5093 -7.95291
ltibia -4.58758
lfoot -18.2937 52.9662
ltoes 6.1648
2
root 0.0282505 17.4831 8.63727 11.3095 3.12726 -8.89892
lowerback -3.03432 0.0871811 5.03439
upperback -10.9605 0.478929 2.68501
thorax -9.93465 -0.0562393 0.0338116
lowerneck 0.395538 -13.6035 -14.5496
upperneck 19.5855 -20.8882 13.4548
head 9.03452 -10.1704 4.81189
rclavicle -6.11263e-015 1.61016e-014
rhumerus -45.0477 -22.3052 -70.4681
rradius 18.7172
rwrist 41.5482
rhand 10.9163 -34.5038
rfingers 7.12502
rthumb 35.9949 -60.8215
lclavicle -6.11263e-015 1.61016e-014
lhumerus -50.035 35.0789 59.6229
lradius 11.7535
lwrist -57.3197
lhand -17.3516 -14.8912
lfingers 7.12502
lthumb 8.89603 14.9013
rfemur -4.34858 25.191 25.3646
rtibia 1.81183
rfoot -13.6716 -29.5288
rtoes 3.46431
lfemur 1.02171 -47.4669 -7.92417
ltibia -4.63051
lfoot -18.8316 52.8486
ltoes 7.17446
3
root 0.0288005 17.4828 8.63794 11.2916 3.14935 -8.92122
lowerback -3.00776 0.0730438 5.06096
upperback -10.9547 0.463474 2.70021
thorax -9.94495 -0.0654939 0.0361974
lowerneck 0.431027 -13.5864 -14.6058
upperneck 19.5556 -20.8747 13.5156
head 9.02922 -10.1661 4.84498
rclavicle -5.46658e-016 -2.28602e-014
rhumerus -45.0379 -22.2325 -70.5027
rradius 18.7451
rwrist 41.4955
rhand 10.9137 -34.5203
rfingers 7.12502
rthumb 35.9924 -60.8386
lclavicle -5.46658e-016 -2.28602e-014
lhumerus -50.0582 35.1043 59.6
lradius 11.7732
lwrist -57.3924
lhand -17.3138 -14.996
lfingers 7.12502
lthumb 8.9325 14.7949
rfemur -4.31806 25.2017 25.4047
rtibia 1.80421
rfoot -13.6874 -29.5499
rtoes 3.5507
lfemur 1.03665 -47.4726 -7.9093
ltibia -4.6273
lfoot -18.8746 52.8331
ltoes 7.17734
4
root 0.0297223 17.4824 8.63901 11.2836 3.15253 -8.93344
lowerback -3.01645 0.0622119 5.0672
upperback -10.9418 0.448958 2.71763
thorax -9.92588 -0.0718292 0.0518667
lowerneck 0.420868 -13.564 -14.57
upperneck 19.5598 -20.8312 13.4649
head 9.01537 -10.1462 4.82929
rclavicle -2.71838e-014 3.35946e-014
rhumerus -44.9949 -22.1334 -70.5628
rradius 18.746
rwrist 41.3969
rhand 10.9034 -34.5324
rfingers 7.12502
rthumb 35.9827 -60.8532
lclavicle -2.71838e-014 3.35946e-014
lhumerus -50.0456 35.1041 59.6231
lradius 11.7719
lwrist -57.4062
lhand -17.3263 -14.9778
lfingers 7.12502
lthumb 8.92045 14.8136
rfemur -4.30012 25.166 25.4258
rtibia 1.79943
rfoot -13.6367 -29.5361
rtoes 4.23694
lfemur 1.05054 -47.4793 -7.91684
ltibia -4.60307
lfoot -18.829 52.8394
ltoes 6.97433
5
root 0.0258825 17.4849 8.64223 11.4125 3.06205 -8.65745
lowerback -3.18858 0.155803 4.7393
upperback -10.9577 0.540654 2.53368
thorax -9.83192 -0.00626272 0.0316365
lowerneck 0.227943 -13.7817 -14.42
upperneck 19.782 -21.1304 13.3153
head 9.14027 -10.2714 4.69431
rclavicle 7.90169e-015 4.37326e-015
rhumerus -44.9509 -22.2608 -70.6729
rradius 18.5188
rwrist 41.1169
rhand 10.6472 -34.4763
rfingers 7.12502
rthumb 35.7399 -60.8562
lclavicle 7.90169e-015 4.37326e-015
lhumerus -49.598 34.5767 60.0894
lradius 11.7809
lwrist -57.0859
lhand -17.2456 -14.5805
lfingers 7.12502
lthumb 8.99837 15.2076
rfemur -4.44036 25.361 25.0275
rtibia 1.78785
rfoot -13.6994 -29.6588
rtoes 5.23222
lfemur 0.890449 -47.6669 -8.11636
ltibia -4.55582
lfoot -19.0792 53.03
ltoes 7.20143
6
root 0.0202282 17.4919 8.66754 11.8649 3.29832 -8.70639
lowerback -4.09417 0.29084 4.81239
upperback -11.0181 0.648565 2.31201
thorax -9.35877 0.0369433 -0.24975
lowerneck -0.0804422 -14.2097 -14.3165
upperneck 20.2081 -21.7785 13.2673
head 9.43062 -10.5437 4.53003
rclavicle -1.36664e-014 3.22031e-014
rhumerus -44.8797 -22.4356 -70.9356
rradius 18.0732
rwrist 40.5246
rhand 10.1565 -34.4091
rfingers 7.12502
rthumb 35.2748 -60.9005
lclavicle -1.36664e-014 3.22031e-014
lhumerus -48.7591 33.44 61.0467
lradius 11.8386
lwrist -56.3256
lhand -17.0464 -13.9456
lfingers 7.12502
lthumb 9.19054 15.8341
rfemur -4.75719 25.4987 24.9592
rtibia 1.58987
rfoot -13.8507 -29.9181
rtoes 5.66701
lfemur 0.160161 -47.806 -7.45906
ltibia -4.58762
lfoot -18.8857 53.1004
ltoes 6.90737
7
root 0.0177613 17.495 8.67783 12.0632 3.36527 -8.61655
lowerback -4.44441 0.354155 4.72375
upperback -11.0566 0.701884 2.18577
thorax -9.19182 0.0672166 -0.335798
lowerneck -0.272784 -14.4133 -14.3519
upperneck 20.5079 -22.1082 13.2979
head 9.63263 -10.6794 4.47118
rclavicle 9.93923e-016 -8.34896e-015
rhumerus -44.8181 -22.4266 -71.1181
rradius 17.8584
rwrist 40.1814
rhand 9.93311 -34.4362
rfingers 7.12502
rthumb 35.0629 -60.9775
lclavicle 9.93923e-016 -8.34896e-015
lhumerus -48.2997 32.75 61.6729
lradius 11.8873
lwrist -55.7411
lhand -17.0038 -13.6396
lfingers 7.12502
lthumb 9.23168 16.1383
rfemur -4.8932 25.5868 24.7927
rtibia 1.47508
rfoot -13.8338 -30.0956
rtoes 5.55872
lfemur -0.131941 -47.9963 -7.33214
ltibia -4.57394
lfoot -18.9719 53.2397
ltoes 6.94415
8
root 0.0183603 17.4952 8.67905 12.0737 3.38262 -8.59531
lowerback -4.44684 0.340319 4.70776
upperback -11.0591 0.683983 2.19904
thorax -9.19414 0.0603578 -0.312155
lowerneck -0.343221 -14.4055 -14.3968
upperneck 20.5944 -22.1023 13.3056
head 9.68174 -10.6731 4.47425
rclavicle -1.21756e-014 1.66979e-014
rhumerus -44.7804 -22.4108 -71.1128
rradius 17.837
rwrist 40.2092
rhand 9.93978 -34.5046
rfingers 7.12502
rthumb 35.0692 -61.0445
lclavicle -1.21756e-014 1.66979e-014
lhumerus -48.2052 32.626 61.8679
lradius 11.8993
lwrist -55.4833
lhand -17.1017 -13.6523
lfingers 7.12502
lthumb 9.13718 16.1298
rfemur -4.88914 25.5956 24.7709
rtibia 1.45246
rfoot -13.7859 -30.1496
rtoes 5.40422
lfemur -0.160933 -48.0059 -7.34753
ltibia -4.54368
lfoot -18.8999 53.2381
ltoes 6.81635
9
root 0.0190448 17.4954 8.68047 12.1011 3.37596 -8.54375
lowerback -4.4876 0.344139 4.66567
upperback -11.0519 0.68487 2.18983
thorax -9.16151 0.064544 -0.298657
lowerneck -0.309257 -14.3884 -14.3924
upperneck 20.4988 -22.0786 13.3581
head 9.64392 -10.6619 4.49879
rclavicle -1.44119e-014 -7.15625e-015
rhumerus -44.7518 -22.5286 -71.0333
rradius 17.7966
rwrist 40.3018
rhand 9.88456 -34.5178
rfingers 7.12502
rthumb 35.0168 -61.0699
lclavicle -1.44119e-014 -7.15625e-015
lhumerus -48.1545 32.647 61.9088
lradius 11.9132
lwrist -55.414
lhand -17.0806 -13.6795
lfingers 7.12502
lthumb 9.15761 16.1017
rfemur -4.92252 25.6521 24.6908
rtibia 1.47402
rfoot -13.9107 -30.1615
rtoes 5.8494
lfemur -0.245223 -47.9485 -7.36692
ltibia -4.4909
lfoot -18.8309 53.1837
ltoes 6.70459
10
root 0.0198535 17.4949 8.683 12.1189 3.35052 -8.50594
lowerback -4.5203 0.358136 4.64332
upperback -11.0508 0.700383 2.17858
thorax -9.14015 0.0739192 -0.298691
lowerneck -0.229735 -14.3567 -14.3958
upperneck 20.362 -22.0406 13.446
head 9.58639 -10.6456 4.54268
rclavicle 1.82385e-014 -1.74931e-014
rhumerus -44.7721 -22.6583 -70.942
rradius 17.792
rwrist 40.3704
rhand 9.80626 -34.4808
rfingers 7.12502
rthumb 34.9426 -61.0502
lclavicle 1.82385e-014 -1.74931e-014
lhumerus -48.0999 32.6158 61.9817
lradius 11.9363
lwrist -55.3019
lhand -17.044 -13.7435
lfingers 7.12502
lthumb 9.19289 16.0361
rfemur -4.94146 25.6663 24.6333
rtibia 1.49447
rfoot -13.9652 -30.145
rtoes 6.03253
lfemur -0.249459 -47.9588 -7.41417
ltibia -4.49618
lfoot -18.7402 53.2258
ltoes 6.5096
11
root 0.0196661 17.4943 8.68712 12.0894 3.32814 -8.49842
lowerback -4.51805 0.3653 4.6235
upperback -11.0426 0.710019 2.18555
thorax -9.13172 0.0809668 -0.280743
lowerneck -0.243105 -14.3435 -14.3824
upperneck 20.3693 -22.0239 13.4536
head 9.58799 -10.6354 4.54527
rclavicle 1.56046e-014 -4.05521e-014
rhumerus -44.7884 -22.6674 -70.9322
rradius 17.8065
rwrist 40.3056
rhand 9.77582 -34.4373
rfingers 7.12502
rthumb 34.9137 -61.0135
lclavicle 1.56046e-014 -4.05521e-014
lhumerus -48.0368 32.5438 62.0977
lradius 11.9444
lwrist -55.1306
lhand -17.0277 -13.7872
lfingers 7.12502
lthumb 9.20866 15.9917
rfemur -4.87172 25.7002 24.6541
rtibia 1.4856
rfoot -13.9693 -30.1633
rtoes 5.97867
lfemur -0.092566 -48.0533 -7.5205
ltibia -4.57144
lfoot -18.817 53.3489
ltoes 6.58554
12
root 0.019163 17.4939 8.69089 12.0434 3.32546 -8.50347
lowerback -4.50628 0.353057 4.60043
upperback -11.0267 0.695328 2.21527
thorax -9.12149 0.0775143 -0.236133
lowerneck -0.288795 -14.3396 -14.3891
upperneck 20.4221 -22.0158 13.4312
head 9.61169 -10.6298 4.53594
rclavicle -1.73937e-015 3.57812e-015
rhumerus -44.769 -22.5947 -70.9577
rradius 17.8164
rwrist 40.2174
rhand 9.78155 -34.326
rfingers 7.12502
rthumb 34.9191 -60.9009
lclavicle -1.73937e-015 3.57812e-015
lhumerus -48.0438 32.6116 62.1023
lradius 11.9381
lwrist -55.113
lhand -16.9816 -13.7856
lfingers 7.12502
lthumb 9.25306 15.9913
rfemur -4.77238 25.7761 24.7028
rtibia 1.44815
rfoot -13.9666 -30.2343
rtoes 5.93066
lfemur 0.0476437 -48.083 -7.60169
ltibia -4.62437
lfoot -18.9818 53.3752
ltoes 6.80025
13
root 0.0191469 17.4936 8.69282 12.0171 3.33345 -8.52073
lowerback -4.47878 0.340775 4.60791
upperback -11.0264 0.68299 2.24784
thorax -9.13843 0.0721953 -0.205303
lowerneck -0.271422 -14.3291 -14.4347
upperneck 20.4084 -22.0021 13.4491
head 9.60934 -10.6265 4.55174
rclavicle 1.18277e-014 9.93923e-015
rhumerus -44.769 -22.5253 -70.9634
rradius 17.8462
rwrist 40.1537
rhand 9.78613 -34.1699
rfingers 7.12502
rthumb 34.9235 -60.7438
lclavicle 1.18277e-014 9.93923e-015
lhumerus -48.0293 32.5776 62.202
lradius 11.9627
lwrist -54.9748
lhand -16.9506 -13.7785
lfingers 7.12502
lthumb 9.28303 15.9971
rfemur -4.72668 25.8156 24.7486
rtibia 1.43432
rfoot -13.9054 -30.3014
rtoes 5.72865
lfemur 0.0781476 -48.0647 -7.60732
ltibia -4.60921
lfoot -18.8985 53.3507
ltoes 6.61272
14
root 0.0197965 17.4933 8.69393 12.0368 3.33335 -8.53499
lowerback -4.48476 0.352765 4.63435
upperback -11.0436 0.700594 2.25696
thorax -9.15407 0.0787905 -0.21062
lowerneck -0.219918 -14.3217 -14.5244
upperneck 20.3989 -22.0075 13.5173
head 9.61726 -10.6333 4.58988
rclavicle -5.26779e-015 -2.78299e-014
rhumerus -44.7931 -22.5699 -70.9041
rradius 17.8446
rwrist 40.1826
rhand 9.82566 -34.0806
rfingers 7.12502
rthumb 34.961 -60.6457
lclavicle -5.26779e-015 -2.78299e-014
lhumerus -47.9485 32.3941 62.4282
lradius 12.0133
lwrist -54.6919
lhand -16.9381 -13.6629
lfingers 7.12502
lthumb 9.29509 16.1122
rfemur -4.75772 25.8386 24.7546
rtibia 1.45377
rfoot -13.9075 -30.3169
rtoes 5.70901
lfemur 0.035318 -48.046 -7.56779
ltibia -4.58024
lfoot -18.684 53.3442
ltoes 6.33092
15
root 0.020635 17.4932 8.69475 12.0866 3.33324 -8.55108
lowerback -4.53065 0.366707 4.65963
upperback -11.0638 0.717923 2.26175
thorax -9.14971 0.0854386 -0.219747
lowerneck -0.191034 -14.3185 -14.6124
upperneck 20.4093 -22.0228 13.5975
head 9.63928 -10.6419 4.62818
rclavicle 5.96354e-015 -2.92213e-014
rhumerus -44.7993 -22.7024 -70.8004
rradius 17.7824
rwrist 40.2983
rhand 9.86071 -34.1358
rfingers 7.12502
rthumb 34.9942 -60.6932
lclavicle 5.96354e-015 -2.92213e-014
lhumerus -47.8832 32.2655 62.5936
lradius 12.0446
lwrist -54.4919
lhand -16.9487 -13.5434
lfingers 7.12502
lthumb 9.28484 16.2322
rfemur -4.83084 25.8351 24.7386
rtibia 1.47159
rfoot -13.9217 -30.2845
rtoes 5.84005
lfemur -0.0470185 -48.011 -7.48447
ltibia -4.57881
lfoot -18.5705 53.3255
ltoes 6.18345
